<?xml version="1.0" encoding="utf-8"?>
<!-- Svg Vector Icons : http://www.onlinewebfonts.com/icon -->
<!DOCTYPE svg PUBLIC "-//W3C//DTD SVG 1.1//EN" "http://www.w3.org/Graphics/SVG/1.1/DTD/svg11.dtd">
<svg version="1.1" xmlns="http://www.w3.org/2000/svg" xmlns:xlink="http://www.w3.org/1999/xlink" x="0px" y="0px" viewBox="0 0 1000 1000" enable-background="new 0 0 1000 1000" xml:space="preserve">
<metadata> Svg Vector Icons : http://www.onlinewebfonts.com/icon </metadata>
<g><path d="M826.7,255V91.7H745V255H581.7v81.7H745V500h81.7V336.7H990v469.6c0,50.6-18,93.9-53.9,129.8C900.2,972,856.9,990,806.3,990H507.7c16.6-31,24.9-64.4,24.9-100.2c0-28.1-4.7-54.1-14-78.2c-9.4-24-21.2-43.8-35.4-59.3c-14.3-15.5-29.6-30.6-45.9-45.3c-16.4-14.7-31.7-27.3-45.9-38c-14.2-10.6-26.1-22.2-35.4-34.8c-9.4-12.6-14-25.2-14-38c0-15.3,4.9-29.8,14.7-43.4c9.8-13.6,21.7-26.7,35.7-39.2c14-12.6,28-26.3,41.8-41.2c13.8-14.9,25.6-34.7,35.4-59.3c9.8-24.7,14.7-52.5,14.7-83.6c0-31.1-5.6-62-16.9-92.8c-11.3-30.8-27.3-56-48.2-75.6c-2.6-2.5-5.5-4.9-8.9-7c-3.4-2.1-6.1-3.7-8-4.8c-1.9-1.1-4-3.1-6.4-6.1c-2.3-3-4.6-6.6-6.7-10.8h86.1l86.1-40.8H282.4c-58.7,0-110.7,8.2-156,24.6C81.1,132.6,42.3,161,10,201.4c0-53.6,17.2-98.9,51.7-135.9C96.1,28.5,140.2,10,193.8,10h612.5c50.6,0,93.9,18,129.8,53.9C972,99.8,990,143.1,990,193.7V255H826.7z M137,476.1c13.6,17.7,30.2,32,49.8,43.1c19.6,11.1,40.2,16.6,61.9,16.6c41.3,0,71.1-12.9,89.6-38.6c18.5-25.7,27.8-59.9,27.8-102.4c0-26-3.4-53.2-10.2-81.7c-6.8-28.5-16.8-56.1-30-82.9c-13.2-26.8-31.1-48.9-53.6-66.4c-22.5-17.4-47.8-26.2-75.9-26.2c-39.6,0-70.3,14.7-92.2,44C82.2,211,71.3,246.1,71.3,286.9c0,20,2.4,41,7.3,63.2c4.9,22.1,12.4,44.2,22.7,66.4C111.5,438.5,123.4,458.4,137,476.1z M215.4,625.7c0-10.6,4.5-28.9,13.4-54.9c-16.2,2.1-31.1,3.2-44.7,3.2c-72.3,0-130.4-25.1-174.2-75.3V775c64.2-33.2,146.1-51.3,245.6-54.2C228.8,685.9,215.4,654.2,215.4,625.7z M433.6,895.9c-2.1-7-5.9-14.3-11.2-22c-5.3-7.7-9.8-14.1-13.4-19.5c-3.6-5.3-9.2-11.6-16.9-18.8c-7.7-7.2-13.5-12.6-17.5-16.3c-4-3.6-10.8-9-20.4-16.3c-9.6-7.2-16.2-12.1-19.8-14.7c-3.6-2.6-10.6-7.4-21-14.7c-10.4-7.2-16.9-11.7-19.5-13.4c-7.2-0.8-17.7-1.3-31.3-1.3c-23.4,0-46.1,1.5-68.3,4.5c-22.1,3-44.9,8.1-68.3,15.3c-23.4,7.2-44.7,17.8-63.8,31.6c-19.1,13.8-33.8,30.3-44,49.4c11.5,38.7,33.5,70.1,66,94.1c32.5,24,69,36.1,109.4,36.1h242.5c4.3-14,6.4-29.1,6.4-45.3c0-8.9-1-17.5-2.9-25.8C437.8,910.6,435.7,902.9,433.6,895.9z"/></g>
</svg>